<svg width="244" height="526" viewBox="0 0 244 526" fill="none" xmlns="http://www.w3.org/2000/svg">
<path d="M53.3569 4.19869C53.5852 6.39313 53.8492 8.22083 54.1503 9.67745C54.4494 11.1249 54.7919 12.2407 55.1921 12.989C56.5944 15.6111 58.6552 17.6719 61.2773 19.0742C63.909 20.4817 66.7182 21.211 72.4701 21.211H171.529C177.281 21.211 180.09 20.4817 182.722 19.0742C185.344 17.6719 187.405 15.6111 188.807 12.989C189.208 12.2407 189.55 11.1249 189.849 9.67745C190.15 8.22083 190.414 6.39313 190.643 4.19869C190.814 2.55139 192.202 1.29993 193.858 1.29993H210.629C221.961 1.29993 225.991 2.47948 230.046 4.64826C234.117 6.82504 237.308 10.0164 239.485 14.0866C241.653 18.1419 242.833 22.1724 242.833 33.5037V493.252C242.833 504.583 241.653 508.613 239.485 512.669C237.308 516.739 234.117 519.93 230.046 522.107C225.991 524.276 221.961 525.455 210.629 525.455H33.3702C22.0389 525.455 18.0083 524.276 13.9531 522.107C9.88285 519.93 6.6915 516.739 4.51471 512.669C2.34593 508.613 1.16638 504.583 1.16638 493.252V33.5037C1.16638 22.1724 2.34593 18.1419 4.51471 14.0866C6.6915 10.0164 9.88285 6.82504 13.9531 4.64826C18.0083 2.47948 22.0389 1.29993 33.3702 1.29993L50.1409 1.29993C51.7971 1.29993 53.1855 2.55139 53.3569 4.19869Z" fill="white" stroke="black"/>
</svg>
